<?xml version="1.0" standalone="no"?>
<!DOCTYPE svg PUBLIC "-//W3C//DTD SVG 20010904//EN"
 "http://www.w3.org/TR/2001/REC-SVG-20010904/DTD/svg10.dtd">
<svg version="1.0" xmlns="http://www.w3.org/2000/svg"
 width="516.000000pt" height="516.000000pt" viewBox="0 0 516.000000 516.000000"
 preserveAspectRatio="xMidYMid meet">
<metadata>
Created by potrace 1.11, written by Peter Selinger 2001-2013
</metadata>
<g transform="translate(0.000000,516.000000) scale(0.100000,-0.100000)"
fill="#000000" stroke="none">
<path d="M2235 4823 c-101 -99 -1947 -1938 -2016 -2010 l-31 -31 127 -494 c71
-271 131 -496 135 -501 3 -4 215 -59 471 -123 l464 -115 237 243 c131 134 324
332 429 440 l190 197 -43 12 c-92 25 -770 189 -781 189 -7 0 -65 -53 -129
-117 l-118 -118 -113 29 c-61 15 -116 31 -121 34 -5 2 497 508 1115 1122 618
615 1122 1120 1119 1123 -7 7 -793 227 -811 227 -8 0 -63 -48 -124 -107z"/>
<path d="M2835 4033 c-115 -114 -323 -318 -460 -453 -599 -587 -776 -763 -771
-767 3 -3 193 -52 423 -110 l418 -105 94 99 c92 97 523 544 631 655 l55 57
133 -31 c72 -17 132 -34 132 -38 0 -6 -258 -263 -1559 -1553 -376 -373 -682
-679 -680 -681 2 -1 99 -28 214 -60 116 -32 299 -82 408 -112 110 -30 205 -54
212 -52 8 2 304 291 657 643 354 352 768 763 921 914 l277 275 98 -23 c53 -13
102 -26 109 -30 14 -8 -218 -245 -1989 -2036 -119 -120 -216 -220 -215 -221 1
-1 186 -50 411 -108 l409 -105 1081 1086 c595 597 1082 1089 1084 1094 4 9
-239 921 -248 932 -3 4 -123 41 -265 83 -143 41 -260 76 -261 77 -2 2 -101
329 -143 474 -21 70 -23 73 -61 83 -102 27 -885 220 -895 220 -5 0 -104 -93
-220 -207z"/>
</g>
</svg>
