<svg width="208" height="63" viewBox="0 0 208 63" fill="none" xmlns="http://www.w3.org/2000/svg">
<path d="M55.1862 6.47406C54.6451 4.39617 52.4364 -0.145492 51.8287 0.284927C51.3914 0.59661 53.2591 4.59654 52.6366 5.89522C52.3475 6.50375 51.7397 6.21433 50.8577 5.83585C49.9757 5.45738 46.974 4.31454 43.5349 6.48148C40.0884 8.65584 38.8136 13.0936 40.0884 18.1028C41.7487 24.6185 43.357 25.9097 41.9933 25.8578C41.6078 25.8429 39.6956 25.5684 37.8575 26.3624C36.0194 27.1565 30.001 30.6443 33.8848 41.4939C34.3517 42.8 34.7001 43.8909 34.9595 44.8185C35.0262 45.0782 35.3375 45.9391 34.8335 46.2507C34.3295 46.5624 33.7217 45.3676 33.1362 44.2545C32.5507 43.1413 15.2961 9.1011 15.2961 9.1011C14.0213 6.68185 11.4939 5.03438 8.57362 5.03438C4.37856 5.0418 0.976562 8.44805 0.976562 12.6558C0.976562 13.8654 1.25821 15.0157 1.76221 16.0323L22.8339 57.7311C24.546 60.9815 26.94 63 30.5124 63C33.7217 63 36.4863 61.1151 37.776 58.3915C38.9693 56.2023 39.7253 52.6774 38.191 47.0077C36.516 40.8186 35.4042 39.1414 35.7674 38.8C36.175 38.429 36.7087 39.2156 37.7019 39.7499C37.7019 39.7499 37.7019 39.7499 37.7093 39.7499C39.7771 40.9744 42.3194 41.1673 44.491 40.0319C45.7288 39.3863 47.604 37.8056 48.0783 34.8892C48.5527 31.9653 46.9517 28.6852 46.0846 26.8151C43.8759 22.0063 42.6751 18.5703 42.9864 18.2809C43.3941 17.9024 43.7795 18.5703 44.9209 19.2308C46.8109 20.3217 51.6656 20.9228 54.4376 17.0342C57.343 12.9526 55.1862 6.47406 55.1862 6.47406Z" fill="#FFA43A"/>
<path d="M79.1756 37.2088C78.8804 37.3741 78.5102 37.5244 78.07 37.6496C77.6297 37.7749 77.2245 37.84 76.8692 37.84C76.0037 37.84 75.3333 37.6647 74.863 37.319C74.3877 36.9684 74.1526 36.3773 74.1526 35.5307V27.2955H78.6753C79.3057 27.2955 79.6259 26.9349 79.6259 26.2185C79.6259 26.0082 79.5959 25.8128 79.5308 25.6325C79.4658 25.4521 79.4058 25.3119 79.3407 25.2067H74.1476V21.565C74.1476 20.8036 73.7073 20.4229 72.8218 20.4229C72.5667 20.4229 72.3315 20.4479 72.1114 20.503C71.8913 20.5531 71.7262 20.6032 71.6211 20.6433V35.686C71.6211 37.2088 72.0814 38.2958 72.9969 38.947C73.9125 39.6032 75.1132 39.9289 76.5891 39.9289C77.5597 39.9289 78.3201 39.7786 78.8654 39.488C79.4158 39.1925 79.6859 38.8118 79.6859 38.3459C79.6859 38.0905 79.6309 37.8701 79.5258 37.6797C79.4158 37.4944 79.3007 37.3341 79.1756 37.2088Z" fill="#FFA43A"/>
<path d="M89.4344 24.4756C88.2537 24.4756 87.193 24.6108 86.2575 24.8713C85.3169 25.1368 84.5765 25.4474 84.0262 25.808C83.6059 26.0785 83.3057 26.3641 83.1256 26.6496C82.9455 26.9351 82.8555 27.3208 82.8555 27.8067V38.5416C82.8555 39.303 83.3107 39.6837 84.2163 39.6837C84.4714 39.6837 84.7016 39.6536 84.9117 39.6035C85.1218 39.5534 85.2819 39.5033 85.387 39.4633V27.6114C85.8722 27.3359 86.4826 27.0954 87.223 26.8951C87.9635 26.6947 88.814 26.5945 89.7846 26.5945C90.1198 26.5945 90.46 26.6145 90.7952 26.6596C91.1304 26.7047 91.4055 26.7448 91.6156 26.7848C91.7207 26.6596 91.8058 26.5043 91.8708 26.329C91.9358 26.1487 91.9658 25.9533 91.9658 25.7429C91.9658 24.8964 91.1204 24.4756 89.4344 24.4756Z" fill="#FFA43A"/>
<path d="M106.08 24.7261C105.85 24.7261 105.619 24.7561 105.399 24.8062C105.179 24.8563 105.014 24.9064 104.909 24.9465V37.0137C104.574 37.2041 104.109 37.3894 103.518 37.5697C102.928 37.7501 102.212 37.8402 101.367 37.8402C100.101 37.8402 99.1106 37.5497 98.3951 36.9686C97.6797 36.3876 97.3195 35.4108 97.3195 34.0382V25.9032C97.3195 25.1218 96.8792 24.7311 95.9937 24.7311C95.7385 24.7311 95.5034 24.7611 95.2833 24.8112C95.0631 24.8613 94.898 24.9114 94.793 24.9515V34.1685C94.793 36.1521 95.3583 37.6098 96.484 38.5365C97.6147 39.4682 99.2306 39.9291 101.342 39.9291C102.543 39.9291 103.573 39.8039 104.424 39.5484C105.279 39.2929 105.95 39.0324 106.435 38.7569C106.88 38.5065 107.155 38.246 107.27 37.9805C107.385 37.72 107.446 37.3644 107.446 36.9185V25.8982C107.441 25.1168 106.985 24.7261 106.08 24.7261Z" fill="#FFA43A"/>
<path d="M117.874 31.1576L115.693 30.6216C114.958 30.4512 114.427 30.1958 114.112 29.8602C113.797 29.5195 113.637 29.1088 113.637 28.6229C113.637 27.9717 113.917 27.4607 114.477 27.1001C115.038 26.7444 115.788 26.5641 116.739 26.5641C117.689 26.5641 118.51 26.7144 119.205 27.0049C119.901 27.3004 120.436 27.5759 120.816 27.8314C121.046 27.7262 121.231 27.5659 121.372 27.3555C121.507 27.1451 121.577 26.9047 121.577 26.6242C121.577 26.0531 121.121 25.5522 120.216 25.1214C119.31 24.6906 118.12 24.4702 116.639 24.4702C115.713 24.4702 114.903 24.5804 114.217 24.8058C113.532 25.0262 112.957 25.3268 112.491 25.7075C112.026 26.0882 111.686 26.529 111.461 27.0349C111.24 27.5409 111.13 28.0719 111.13 28.6179C111.13 29.6347 111.426 30.4613 112.016 31.1024C112.606 31.7486 113.542 32.2395 114.828 32.5752L117.454 33.2715C118.91 33.6321 119.636 34.4086 119.636 35.6158C119.636 37.0935 118.54 37.8299 116.349 37.8299C115.378 37.8299 114.512 37.6646 113.757 37.339C112.997 37.0134 112.336 36.6377 111.766 36.2169C111.491 36.3872 111.286 36.5876 111.15 36.818C111.01 37.0484 110.945 37.2939 110.945 37.5493C110.945 37.8449 111.075 38.1354 111.341 38.4209C111.606 38.7065 111.976 38.962 112.446 39.1824C112.921 39.4028 113.492 39.5831 114.172 39.7183C114.848 39.8536 115.583 39.9237 116.384 39.9237C118.26 39.9237 119.696 39.543 120.686 38.7816C121.677 38.0202 122.172 36.9683 122.172 35.6158C122.172 34.4136 121.812 33.4568 121.096 32.7505C120.381 32.0492 119.305 31.5182 117.874 31.1576Z" fill="#FFA43A"/>
<path d="M133.194 37.2088C132.899 37.3741 132.529 37.5244 132.088 37.6496C131.643 37.7749 131.243 37.84 130.888 37.84C130.022 37.84 129.352 37.6647 128.881 37.319C128.406 36.9684 128.171 36.3773 128.171 35.5307V27.2955H132.694C133.324 27.2955 133.644 26.9349 133.644 26.2185C133.644 26.0082 133.614 25.8128 133.549 25.6325C133.484 25.4521 133.424 25.3119 133.359 25.2067H128.171V21.565C128.171 20.8036 127.731 20.4229 126.845 20.4229C126.59 20.4229 126.355 20.4479 126.135 20.503C125.915 20.5531 125.75 20.6032 125.645 20.6433V35.686C125.645 37.2088 126.105 38.2958 127.02 38.947C127.936 39.6032 129.132 39.9289 130.613 39.9289C131.583 39.9289 132.339 39.7786 132.889 39.488C133.439 39.1925 133.709 38.8118 133.709 38.3459C133.709 38.0905 133.654 37.8701 133.549 37.6797C133.434 37.4944 133.319 37.3341 133.194 37.2088Z" fill="#FFA43A"/>
<path d="M156.471 16.2151C156.246 16.3354 156.917 17.3923 156.706 17.798C156.606 17.9884 156.411 17.9884 156.186 17.9333C155.961 17.8782 155.686 17.8231 155.386 17.8231C154.71 17.8231 154.155 18.0385 153.725 18.4743C153.289 18.9051 153.074 19.4311 153.074 20.0422C153.074 20.6733 153.289 21.2093 153.725 21.6401C154.155 22.0759 154.735 22.2913 155.386 22.2913C156.036 22.2913 157.527 21.9206 157.822 19.8769C158.117 17.8281 156.696 16.0949 156.471 16.2151Z" fill="#FFA43A"/>
<path d="M150.233 24.5702C149.863 24.3147 149.408 24.1895 148.857 24.1895C148.542 24.1895 148.217 24.2295 147.892 24.2997C147.567 24.3748 147.276 24.485 147.021 24.6303C146.576 26.5538 146.061 28.5024 145.47 30.4761C144.88 32.4497 144.28 34.3682 143.669 36.2217H143.544C143.459 35.9461 143.349 35.6055 143.214 35.1948C143.074 34.784 142.934 34.3482 142.789 33.8974C142.644 33.4465 142.489 32.9807 142.328 32.5048C142.168 32.0289 142.028 31.5831 141.903 31.1573L140.322 25.9327C140.132 25.2765 139.862 24.8256 139.517 24.5702C139.172 24.3147 138.721 24.1895 138.171 24.1895C137.751 24.1895 137.345 24.2796 136.955 24.46C136.565 24.6403 136.265 24.8557 136.055 25.1061C136.225 25.7624 136.44 26.4987 136.7 27.3252C136.965 28.1468 137.25 29.0033 137.556 29.89C137.861 30.7766 138.181 31.6683 138.521 32.5649C138.856 33.4616 139.187 34.3131 139.502 35.1146C139.817 35.9161 140.112 36.6324 140.387 37.2686C140.662 37.8998 140.893 38.4007 141.083 38.7563C141.273 39.117 141.583 39.3725 142.013 39.5328C142.443 39.6931 142.969 39.7732 143.579 39.7732C144.084 39.7732 144.55 39.7181 144.97 39.6129C145.39 39.5077 145.71 39.3725 145.921 39.2022C146.216 38.6511 146.541 37.9749 146.901 37.1784C147.261 36.3769 147.617 35.5254 147.977 34.6287C148.337 33.7321 148.682 32.8154 149.022 31.8887C149.358 30.9619 149.658 30.0953 149.923 29.2939C150.183 28.4924 150.398 27.7811 150.553 27.17C150.713 26.5588 150.788 26.113 150.788 25.8425C150.788 25.2464 150.603 24.8206 150.233 24.5702Z" fill="#FFA43A"/>
<path d="M155.197 24.3799C154.816 24.3799 154.466 24.4099 154.136 24.4751C153.811 24.5402 153.561 24.5953 153.391 24.6354V37.8748C153.391 38.5711 153.566 39.057 153.911 39.3325C154.256 39.608 154.811 39.7432 155.572 39.7432C155.952 39.7432 156.302 39.7132 156.633 39.6481C156.958 39.5879 157.208 39.5328 157.373 39.4928V26.2483C157.373 25.552 157.198 25.0661 156.853 24.7906C156.513 24.5151 155.957 24.3799 155.197 24.3799Z" fill="#FFA43A"/>
<path d="M173.853 26.043C173.198 25.3768 172.437 24.8859 171.562 24.5553C170.686 24.2297 169.741 24.0644 168.73 24.0644C168.01 24.0644 167.364 24.1445 166.784 24.2998C166.203 24.4601 165.693 24.6555 165.248 24.8859V20.5479C165.248 19.8516 165.068 19.3657 164.713 19.0902C164.352 18.8197 163.807 18.6794 163.067 18.6794C162.666 18.6794 162.301 18.7045 161.976 18.7596C161.651 18.8097 161.401 18.8698 161.23 18.9299V36.2869C161.23 36.7728 161.336 37.1886 161.546 37.5392C161.756 37.8849 162.081 38.2105 162.526 38.506C163.117 38.9068 163.867 39.2574 164.773 39.5529C165.678 39.8485 166.744 39.9938 167.97 39.9938C169.17 39.9938 170.261 39.8234 171.241 39.4878C172.222 39.1472 173.058 38.6413 173.758 37.965C174.453 37.2888 174.989 36.4572 175.374 35.4654C175.754 34.4736 175.944 33.3114 175.944 31.979C175.944 30.6465 175.759 29.4944 175.389 28.5126C175.019 27.5308 174.503 26.7093 173.853 26.043ZM170.786 35.6057C170.071 36.3971 169.12 36.7929 167.939 36.7929C167.329 36.7929 166.789 36.7127 166.324 36.5574C165.858 36.4021 165.493 36.2368 165.218 36.0665V28.1469C165.578 27.9165 165.993 27.7061 166.469 27.5157C166.944 27.3254 167.464 27.2302 168.035 27.2302C169.175 27.2302 170.096 27.6159 170.801 28.3723C171.507 29.1337 171.862 30.3359 171.862 31.984C171.857 33.607 171.502 34.8142 170.786 35.6057Z" fill="#FFA43A"/>
<path d="M190.834 25.9128C190.223 25.3317 189.483 24.8808 188.622 24.5502C187.757 24.2246 186.806 24.0593 185.776 24.0593C184.765 24.0593 183.805 24.2196 182.899 24.5352C181.993 24.8508 181.198 25.3367 180.513 25.9929C179.827 26.6491 179.282 27.4606 178.882 28.4324C178.481 29.4042 178.281 30.5463 178.281 31.8537C178.281 33.2062 178.486 34.3884 178.897 35.4003C179.307 36.4121 179.877 37.2637 180.608 37.945C181.333 38.6312 182.209 39.1422 183.234 39.4828C184.255 39.8184 185.39 39.9888 186.636 39.9888C187.417 39.9888 188.142 39.9236 188.818 39.7984C189.493 39.6732 190.078 39.4928 190.574 39.2624C191.069 39.032 191.459 38.7515 191.744 38.4209C192.029 38.0953 192.17 37.7196 192.17 37.2988C192.17 36.9582 192.074 36.6426 191.884 36.347C191.694 36.0515 191.454 35.8211 191.159 35.6507C190.694 35.9463 190.088 36.2268 189.343 36.4873C188.592 36.7528 187.777 36.883 186.891 36.883C185.711 36.883 184.72 36.6426 183.92 36.1567C183.119 35.6708 182.569 34.8893 182.274 33.8123L191.069 32.545C191.614 32.4598 192.044 32.2745 192.35 31.9739C192.655 31.6784 192.81 31.2376 192.81 30.6415C192.81 29.6947 192.635 28.8081 192.29 27.9966C191.924 27.1951 191.444 26.4938 190.834 25.9128ZM182.008 31.0322C182.094 29.7649 182.484 28.7881 183.179 28.1018C183.875 27.4155 184.74 27.0749 185.771 27.0749C186.801 27.0749 187.582 27.3654 188.112 27.9465C188.637 28.5276 188.948 29.2088 189.028 29.9903L182.008 31.0322Z" fill="#FFA43A"/>
<path d="M206.201 32.2495C205.421 31.478 204.155 30.892 202.404 30.4912L200.853 30.1105C200.198 29.9652 199.743 29.7749 199.477 29.5395C199.212 29.309 199.082 29.0085 199.082 28.6528C199.082 28.1669 199.312 27.7912 199.778 27.5257C200.243 27.2603 200.883 27.13 201.709 27.13C202.109 27.13 202.514 27.1651 202.925 27.2402C203.335 27.3154 203.725 27.4055 204.095 27.5107C204.465 27.6159 204.801 27.7311 205.106 27.8614C205.411 27.9866 205.661 28.1168 205.846 28.2421C206.076 28.0718 206.277 27.8463 206.447 27.5608C206.617 27.2753 206.697 26.9447 206.697 26.564C206.697 26.1632 206.567 25.8076 206.302 25.502C206.036 25.1964 205.666 24.936 205.196 24.7106C204.721 24.4901 204.165 24.3198 203.52 24.2046C202.879 24.0894 202.174 24.0293 201.419 24.0293C199.437 24.0293 197.897 24.4601 196.801 25.3117C195.705 26.1632 195.155 27.2803 195.155 28.6528C195.155 29.855 195.53 30.8168 196.281 31.5331C197.026 32.2495 198.182 32.7905 199.743 33.1461L201.514 33.5569C202.779 33.8324 203.41 34.4034 203.41 35.27C203.41 35.776 203.19 36.1717 202.744 36.4572C202.304 36.7427 201.649 36.883 200.783 36.883C199.773 36.883 198.882 36.7377 198.112 36.4422C197.341 36.1466 196.661 35.806 196.07 35.4303C195.775 35.6207 195.54 35.8611 195.36 36.1567C195.18 36.4522 195.09 36.8029 195.09 37.2036C195.09 37.6244 195.235 38.0101 195.515 38.3607C195.8 38.7064 196.201 39.0069 196.716 39.2474C197.231 39.4928 197.841 39.6782 198.552 39.8034C199.257 39.9286 200.043 39.9937 200.908 39.9937C203.02 39.9937 204.621 39.578 205.716 38.7414C206.812 37.9099 207.362 36.7528 207.362 35.275C207.372 34.0277 206.982 33.0209 206.201 32.2495Z" fill="#FFA43A"/>
</svg>
